<svg id="Layer_1" data-name="Layer 1" xmlns="http://www.w3.org/2000/svg" viewBox="0 0 1431.69 758.75"><defs><style>.cls-1{fill:#cc9d8c;}.cls-2{fill:#ab6953;}.cls-3{fill:#edd1c5;}</style></defs><title>Masnad Stars piece svg</title><path class="cls-1" d="M40.46,84.31h3.2V82.44c.09-36.47,2.13-38.6,38.78-38.69h1.78V40.56H82.35c-36.65-.09-38.6-2.22-38.69-38.7V0h-3.2V1.78c0,36.56-2,38.69-38.68,38.78H0v3.19H1.78c36.65.09,38.68,2.22,38.68,38.69Z"/><path class="cls-2" d="M124.68,168.61h3.2v-1.86c.09-36.48,2.13-38.61,38.78-38.69h1.77v-3.2h-1.86c-36.65-.09-38.6-2.22-38.69-38.69V84.31h-3.2v1.77c0,36.56-2,38.69-38.69,38.78H84.22v3.2H86c36.65.08,38.69,2.21,38.69,38.69Z"/><path class="cls-2" d="M208.9,84.31h3.19V82.44c.09-36.47,2.14-38.6,38.78-38.69h1.78V40.56h-1.86c-36.65-.09-38.61-2.22-38.7-38.7V0H208.9V1.78c0,36.56-2,38.69-38.69,38.78h-1.78v3.19h1.78c36.65.09,38.69,2.22,38.69,38.69Z"/><path class="cls-3" d="M293.12,168.61h3.19v-1.86c.09-36.48,2.13-38.61,38.78-38.69h1.78v-3.2H335c-36.65-.09-38.6-2.22-38.69-38.69V84.31h-3.19v1.77c0,36.56-2,38.69-38.69,38.78h-1.78v3.2h1.78c36.65.08,38.69,2.21,38.69,38.69Z"/><path class="cls-2" d="M377.33,84.31h3.2V82.44c.09-36.47,2.13-38.6,38.78-38.69h1.78V40.56h-1.87c-36.65-.09-38.6-2.22-38.69-38.7V0h-3.2V1.78c0,36.56-2,38.69-38.69,38.78h-1.77v3.19h1.77c36.65.09,38.69,2.22,38.69,38.69Z"/><path class="cls-2" d="M461.55,168.61h3.2v-1.86c.08-36.48,2.13-38.61,38.78-38.69h1.77v-3.2h-1.86c-36.65-.09-38.61-2.22-38.69-38.69V84.31h-3.2v1.77c0,36.56-2,38.69-38.69,38.78h-1.77v3.2h1.77c36.65.08,38.69,2.21,38.69,38.69Z"/><path class="cls-1" d="M545.77,84.31H549V82.44c.09-36.47,2.13-38.6,38.78-38.69h1.78V40.56h-1.87C551,40.47,549.05,38.34,549,1.86V0h-3.19V1.78c0,36.56-2,38.69-38.69,38.78H505.3v3.19h1.78c36.65.09,38.69,2.22,38.69,38.69Z"/><path class="cls-2" d="M630,168.61h3.2v-1.86c.09-36.48,2.13-38.61,38.78-38.69h1.78v-3.2h-1.87c-36.65-.09-38.6-2.22-38.69-38.69V84.31H630v1.77c0,36.56-2,38.69-38.68,38.78h-1.78v3.2h1.78c36.64.08,38.68,2.21,38.68,38.69Z"/><path class="cls-2" d="M714.2,84.31h3.2V82.44c.08-36.47,2.13-38.6,38.78-38.69H758V40.56h-1.86c-36.65-.09-38.61-2.22-38.69-38.7V0h-3.2V1.78c0,36.56-2,38.69-38.69,38.78h-1.77v3.19h1.77c36.65.09,38.69,2.22,38.69,38.69Z"/><path class="cls-2" d="M798.42,168.61h3.19v-1.86c.09-36.48,2.13-38.61,38.78-38.69h1.78v-3.2H840.3c-36.64-.09-38.6-2.22-38.69-38.69V84.31h-3.19v1.77c0,36.56-2,38.69-38.69,38.78H758v3.2h1.78c36.65.08,38.69,2.21,38.69,38.69Z"/><path class="cls-2" d="M882.63,84.31h3.2V82.44c.09-36.47,2.13-38.6,38.78-38.69h1.78V40.56h-1.87c-36.65-.09-38.6-2.22-38.69-38.7V0h-3.2V1.78c0,36.56-2,38.69-38.68,38.78h-1.78v3.19H844c36.65.09,38.68,2.22,38.68,38.69Z"/><path class="cls-2" d="M966.85,168.61h3.2v-1.86c.09-36.48,2.13-38.61,38.78-38.69h1.77v-3.2h-1.86c-36.65-.09-38.6-2.22-38.69-38.69V84.31h-3.2v1.77c0,36.56-2,38.69-38.69,38.78h-1.77v3.2h1.77c36.65.08,38.69,2.21,38.69,38.69Z"/><path class="cls-3" d="M1051.07,84.31h3.19V82.44c.09-36.47,2.14-38.6,38.78-38.69h1.78V40.56H1093c-36.65-.09-38.61-2.22-38.7-38.7V0h-3.19V1.78c0,36.56-2,38.69-38.69,38.78h-1.78v3.19h1.78c36.65.09,38.69,2.22,38.69,38.69Z"/><path class="cls-1" d="M1135.29,168.61h3.19v-1.86c.09-36.48,2.13-38.61,38.78-38.69H1179v-3.2h-1.87c-36.65-.09-38.6-2.22-38.69-38.69V84.31h-3.19v1.77c0,36.56-2,38.69-38.69,38.78h-1.78v3.2h1.78c36.65.08,38.69,2.21,38.69,38.69Z"/><path class="cls-2" d="M1219.5,84.31h3.2V82.44c.09-36.47,2.13-38.6,38.78-38.69h1.78V40.56h-1.87c-36.65-.09-38.6-2.22-38.69-38.7V0h-3.2V1.78c0,36.56-2,38.69-38.68,38.78H1179v3.19h1.78c36.64.09,38.68,2.22,38.68,38.69Z"/><path class="cls-2" d="M1303.72,168.61h3.2v-1.86c.08-36.48,2.13-38.61,38.78-38.69h1.77v-3.2h-1.86c-36.65-.09-38.61-2.22-38.69-38.69V84.31h-3.2v1.77c0,36.56-2,38.69-38.69,38.78h-1.77v3.2H1265c36.65.08,38.69,2.21,38.69,38.69Z"/><path class="cls-2" d="M1387.94,84.31h3.19V82.44c.09-36.47,2.13-38.6,38.78-38.69h1.78V40.56h-1.87c-36.64-.09-38.6-2.22-38.69-38.7V0h-3.19V1.78c0,36.56-2,38.69-38.69,38.78h-1.78v3.19h1.78c36.65.09,38.69,2.22,38.69,38.69Z"/><path class="cls-2" d="M40.46,252.92h3.2v-1.87c.09-36.47,2.13-38.6,38.78-38.69h1.78v-3.19H82.35c-36.65-.09-38.6-2.22-38.69-38.7v-1.86h-3.2v1.78c0,36.56-2,38.69-38.68,38.78H0v3.19H1.78c36.65.09,38.68,2.22,38.68,38.69Z"/><path class="cls-1" d="M124.68,337.22h3.2v-1.86c.09-36.48,2.13-38.6,38.78-38.69h1.77v-3.2h-1.86c-36.65-.08-38.6-2.22-38.69-38.69v-1.86h-3.2v1.77c0,36.56-2,38.7-38.69,38.78H84.22v3.2H86c36.65.09,38.69,2.21,38.69,38.69Z"/><path class="cls-2" d="M208.9,252.92h3.19v-1.87c.09-36.47,2.14-38.6,38.78-38.69h1.78v-3.19h-1.86c-36.65-.09-38.61-2.22-38.7-38.7v-1.86H208.9v1.78c0,36.56-2,38.69-38.69,38.78h-1.78v3.19h1.78c36.65.09,38.69,2.22,38.69,38.69Z"/><path class="cls-2" d="M293.12,337.22h3.19v-1.86c.09-36.48,2.13-38.6,38.78-38.69h1.78v-3.2H335c-36.65-.08-38.6-2.22-38.69-38.69v-1.86h-3.19v1.77c0,36.56-2,38.7-38.69,38.78h-1.78v3.2h1.78c36.65.09,38.69,2.21,38.69,38.69Z"/><path class="cls-1" d="M377.33,252.92h3.2v-1.87c.09-36.47,2.13-38.6,38.78-38.69h1.78v-3.19h-1.87c-36.65-.09-38.6-2.22-38.69-38.7v-1.86h-3.2v1.78c0,36.56-2,38.69-38.69,38.78h-1.77v3.19h1.77c36.65.09,38.69,2.22,38.69,38.69Z"/><path class="cls-2" d="M461.55,337.22h3.2v-1.86c.08-36.48,2.13-38.6,38.78-38.69h1.77v-3.2h-1.86c-36.65-.08-38.61-2.22-38.69-38.69v-1.86h-3.2v1.77c0,36.56-2,38.7-38.69,38.78h-1.77v3.2h1.77c36.65.09,38.69,2.21,38.69,38.69Z"/><path class="cls-2" d="M545.77,252.92H549v-1.87c.09-36.47,2.13-38.6,38.78-38.69h1.78v-3.19h-1.87c-36.65-.09-38.6-2.22-38.69-38.7v-1.86h-3.19v1.78c0,36.56-2,38.69-38.69,38.78H505.3v3.19h1.78c36.65.09,38.69,2.22,38.69,38.69Z"/><path class="cls-2" d="M630,337.22h3.2v-1.86c.09-36.48,2.13-38.6,38.78-38.69h1.78v-3.2h-1.87c-36.65-.08-38.6-2.22-38.69-38.69v-1.86H630v1.77c0,36.56-2,38.7-38.68,38.78h-1.78v3.2h1.78c36.64.09,38.68,2.21,38.68,38.69Z"/><path class="cls-2" d="M714.2,252.92h3.2v-1.87c.08-36.47,2.13-38.6,38.78-38.69H758v-3.19h-1.86c-36.65-.09-38.61-2.22-38.69-38.7v-1.86h-3.2v1.78c0,36.56-2,38.69-38.69,38.78h-1.77v3.19h1.77c36.65.09,38.69,2.22,38.69,38.69Z"/><path class="cls-3" d="M798.42,337.22h3.19v-1.86c.09-36.48,2.13-38.6,38.78-38.69h1.78v-3.2H840.3c-36.64-.08-38.6-2.22-38.69-38.69v-1.86h-3.19v1.77c0,36.56-2,38.7-38.69,38.78H758v3.2h1.78c36.65.09,38.69,2.21,38.69,38.69Z"/><path class="cls-2" d="M882.63,252.92h3.2v-1.87c.09-36.47,2.13-38.6,38.78-38.69h1.78v-3.19h-1.87c-36.65-.09-38.6-2.22-38.69-38.7v-1.86h-3.2v1.78c0,36.56-2,38.69-38.68,38.78h-1.78v3.19H844c36.65.09,38.68,2.22,38.68,38.69Z"/><path class="cls-1" d="M966.85,337.22h3.2v-1.86c.09-36.48,2.13-38.6,38.78-38.69h1.77v-3.2h-1.86c-36.65-.08-38.6-2.22-38.69-38.69v-1.86h-3.2v1.77c0,36.56-2,38.7-38.69,38.78h-1.77v3.2h1.77c36.65.09,38.69,2.21,38.69,38.69Z"/><path class="cls-2" d="M1051.07,252.92h3.19v-1.87c.09-36.47,2.14-38.6,38.78-38.69h1.78v-3.19H1093c-36.65-.09-38.61-2.22-38.7-38.7v-1.86h-3.19v1.78c0,36.56-2,38.69-38.69,38.78h-1.78v3.19h1.78c36.65.09,38.69,2.22,38.69,38.69Z"/><path class="cls-2" d="M1135.29,337.22h3.19v-1.86c.09-36.48,2.13-38.6,38.78-38.69H1179v-3.2h-1.87c-36.65-.08-38.6-2.22-38.69-38.69v-1.86h-3.19v1.77c0,36.56-2,38.7-38.69,38.78h-1.78v3.2h1.78c36.65.09,38.69,2.21,38.69,38.69Z"/><path class="cls-2" d="M1219.5,252.92h3.2v-1.87c.09-36.47,2.13-38.6,38.78-38.69h1.78v-3.19h-1.87c-36.65-.09-38.6-2.22-38.69-38.7v-1.86h-3.2v1.78c0,36.56-2,38.69-38.68,38.78H1179v3.19h1.78c36.64.09,38.68,2.22,38.68,38.69Z"/><path class="cls-2" d="M1303.72,337.22h3.2v-1.86c.08-36.48,2.13-38.6,38.78-38.69h1.77v-3.2h-1.86c-36.65-.08-38.61-2.22-38.69-38.69v-1.86h-3.2v1.77c0,36.56-2,38.7-38.69,38.78h-1.77v3.2H1265c36.65.09,38.69,2.21,38.69,38.69Z"/><path class="cls-3" d="M1387.94,252.92h3.19v-1.87c.09-36.47,2.13-38.6,38.78-38.69h1.78v-3.19h-1.87c-36.64-.09-38.6-2.22-38.69-38.7v-1.86h-3.19v1.78c0,36.56-2,38.69-38.69,38.78h-1.78v3.19h1.78c36.65.09,38.69,2.22,38.69,38.69Z"/><path class="cls-3" d="M40.46,421.53h3.2v-1.87c.09-36.47,2.13-38.6,38.78-38.69h1.78v-3.19H82.35c-36.65-.09-38.6-2.22-38.69-38.69v-1.87h-3.2V339c0,36.56-2,38.69-38.68,38.78H0V381H1.78c36.65.09,38.68,2.22,38.68,38.69Z"/><path class="cls-2" d="M124.68,505.83h3.2V504c.09-36.47,2.13-38.6,38.78-38.69h1.77v-3.2h-1.86c-36.65-.08-38.6-2.22-38.69-38.69v-1.86h-3.2v1.77c0,36.56-2,38.7-38.69,38.78H84.22v3.2H86c36.65.09,38.69,2.22,38.69,38.69Z"/><path class="cls-2" d="M208.9,421.53h3.19v-1.87c.09-36.47,2.14-38.6,38.78-38.69h1.78v-3.19h-1.86c-36.65-.09-38.61-2.22-38.7-38.69v-1.87H208.9V339c0,36.56-2,38.69-38.69,38.78h-1.78V381h1.78c36.65.09,38.69,2.22,38.69,38.69Z"/><path class="cls-2" d="M293.12,505.83h3.19V504c.09-36.47,2.13-38.6,38.78-38.69h1.78v-3.2H335c-36.65-.08-38.6-2.22-38.69-38.69v-1.86h-3.19v1.77c0,36.56-2,38.7-38.69,38.78h-1.78v3.2h1.78c36.65.09,38.69,2.22,38.69,38.69Z"/><path class="cls-2" d="M377.33,421.53h3.2v-1.87c.09-36.47,2.13-38.6,38.78-38.69h1.78v-3.19h-1.87c-36.65-.09-38.6-2.22-38.69-38.69v-1.87h-3.2V339c0,36.56-2,38.69-38.69,38.78h-1.77V381h1.77c36.65.09,38.69,2.22,38.69,38.69Z"/><path class="cls-3" d="M461.55,505.83h3.2V504c.08-36.47,2.13-38.6,38.78-38.69h1.77v-3.2h-1.86c-36.65-.08-38.61-2.22-38.69-38.69v-1.86h-3.2v1.77c0,36.56-2,38.7-38.69,38.78h-1.77v3.2h1.77c36.65.09,38.69,2.22,38.69,38.69Z"/><path class="cls-2" d="M545.77,421.53H549v-1.87c.09-36.47,2.13-38.6,38.78-38.69h1.78v-3.19h-1.87c-36.65-.09-38.6-2.22-38.69-38.69v-1.87h-3.19V339c0,36.56-2,38.69-38.69,38.78H505.3V381h1.78c36.65.09,38.69,2.22,38.69,38.69Z"/><path class="cls-2" d="M630,505.83h3.2V504c.09-36.47,2.13-38.6,38.78-38.69h1.78v-3.2h-1.87c-36.65-.08-38.6-2.22-38.69-38.69v-1.86H630v1.77c0,36.56-2,38.7-38.68,38.78h-1.78v3.2h1.78C627.94,465.37,630,467.5,630,504Z"/><path class="cls-1" d="M714.2,421.53h3.2v-1.87c.08-36.47,2.13-38.6,38.78-38.69H758v-3.19h-1.86c-36.65-.09-38.61-2.22-38.69-38.69v-1.87h-3.2V339c0,36.56-2,38.69-38.69,38.78h-1.77V381h1.77c36.65.09,38.69,2.22,38.69,38.69Z"/><path class="cls-2" d="M798.42,505.83h3.19V504c.09-36.47,2.13-38.6,38.78-38.69h1.78v-3.2H840.3c-36.64-.08-38.6-2.22-38.69-38.69v-1.86h-3.19v1.77c0,36.56-2,38.7-38.69,38.78H758v3.2h1.78c36.65.09,38.69,2.22,38.69,38.69Z"/><path class="cls-2" d="M882.63,421.53h3.2v-1.87c.09-36.47,2.13-38.6,38.78-38.69h1.78v-3.19h-1.87c-36.65-.09-38.6-2.22-38.69-38.69v-1.87h-3.2V339c0,36.56-2,38.69-38.68,38.78h-1.78V381H844c36.65.09,38.68,2.22,38.68,38.69Z"/><path class="cls-2" d="M966.85,505.83h3.2V504c.09-36.47,2.13-38.6,38.78-38.69h1.77v-3.2h-1.86c-36.65-.08-38.6-2.22-38.69-38.69v-1.86h-3.2v1.77c0,36.56-2,38.7-38.69,38.78h-1.77v3.2h1.77c36.65.09,38.69,2.22,38.69,38.69Z"/><path class="cls-2" d="M1051.07,421.53h3.19v-1.87c.09-36.47,2.14-38.6,38.78-38.69h1.78v-3.19H1093c-36.65-.09-38.61-2.22-38.7-38.69v-1.87h-3.19V339c0,36.56-2,38.69-38.69,38.78h-1.78V381h1.78c36.65.09,38.69,2.22,38.69,38.69Z"/><path class="cls-2" d="M1135.29,505.83h3.19V504c.09-36.47,2.13-38.6,38.78-38.69H1179v-3.2h-1.87c-36.65-.08-38.6-2.22-38.69-38.69v-1.86h-3.19v1.77c0,36.56-2,38.7-38.69,38.78h-1.78v3.2h1.78c36.65.09,38.69,2.22,38.69,38.69Z"/><path class="cls-2" d="M1219.5,421.53h3.2v-1.87c.09-36.47,2.13-38.6,38.78-38.69h1.78v-3.19h-1.87c-36.65-.09-38.6-2.22-38.69-38.69v-1.87h-3.2V339c0,36.56-2,38.69-38.68,38.78H1179V381h1.78c36.64.09,38.68,2.22,38.68,38.69Z"/><path class="cls-1" d="M1303.72,505.83h3.2V504c.08-36.47,2.13-38.6,38.78-38.69h1.77v-3.2h-1.86c-36.65-.08-38.61-2.22-38.69-38.69v-1.86h-3.2v1.77c0,36.56-2,38.7-38.69,38.78h-1.77v3.2H1265c36.65.09,38.69,2.22,38.69,38.69Z"/><path class="cls-2" d="M1387.94,421.53h3.19v-1.87c.09-36.47,2.13-38.6,38.78-38.69h1.78v-3.19h-1.87c-36.64-.09-38.6-2.22-38.69-38.69v-1.87h-3.19V339c0,36.56-2,38.69-38.69,38.78h-1.78V381h1.78c36.65.09,38.69,2.22,38.69,38.69Z"/><path class="cls-2" d="M40.46,590.14h3.2v-1.87c.09-36.47,2.13-38.6,38.78-38.68h1.78v-3.2H82.35c-36.65-.09-38.6-2.22-38.69-38.69v-1.87h-3.2v1.78c0,36.56-2,38.69-38.68,38.78H0v3.2H1.78c36.65.08,38.68,2.21,38.68,38.68Z"/><path class="cls-3" d="M124.68,674.44h3.2v-1.86c.09-36.47,2.13-38.6,38.78-38.69h1.77V630.7h-1.86c-36.65-.09-38.6-2.22-38.69-38.7v-1.86h-3.2v1.78c0,36.56-2,38.69-38.69,38.78H84.22v3.19H86c36.65.09,38.69,2.22,38.69,38.69Z"/><path class="cls-2" d="M208.9,590.14h3.19v-1.87c.09-36.47,2.14-38.6,38.78-38.68h1.78v-3.2h-1.86c-36.65-.09-38.61-2.22-38.7-38.69v-1.87H208.9v1.78c0,36.56-2,38.69-38.69,38.78h-1.78v3.2h1.78c36.65.08,38.69,2.21,38.69,38.68Z"/><path class="cls-2" d="M293.12,674.44h3.19v-1.86c.09-36.47,2.13-38.6,38.78-38.69h1.78V630.7H335c-36.65-.09-38.6-2.22-38.69-38.7v-1.86h-3.19v1.78c0,36.56-2,38.69-38.69,38.78h-1.78v3.19h1.78c36.65.09,38.69,2.22,38.69,38.69Z"/><path class="cls-1" d="M377.33,590.14h3.2v-1.87c.09-36.47,2.13-38.6,38.78-38.68h1.78v-3.2h-1.87c-36.65-.09-38.6-2.22-38.69-38.69v-1.87h-3.2v1.78c0,36.56-2,38.69-38.69,38.78h-1.77v3.2h1.77c36.65.08,38.69,2.21,38.69,38.68Z"/><path class="cls-2" d="M461.55,674.44h3.2v-1.86c.08-36.47,2.13-38.6,38.78-38.69h1.77V630.7h-1.86c-36.65-.09-38.61-2.22-38.69-38.7v-1.86h-3.2v1.78c0,36.56-2,38.69-38.69,38.78h-1.77v3.19h1.77c36.65.09,38.69,2.22,38.69,38.69Z"/><path class="cls-2" d="M545.77,590.14H549v-1.87c.09-36.47,2.13-38.6,38.78-38.68h1.78v-3.2h-1.87c-36.65-.09-38.6-2.22-38.69-38.69v-1.87h-3.19v1.78c0,36.56-2,38.69-38.69,38.78H505.3v3.2h1.78c36.65.08,38.69,2.21,38.69,38.68Z"/><path class="cls-2" d="M630,674.44h3.2v-1.86c.09-36.47,2.13-38.6,38.78-38.69h1.78V630.7h-1.87c-36.65-.09-38.6-2.22-38.69-38.7v-1.86H630v1.78c0,36.56-2,38.69-38.68,38.78h-1.78v3.19h1.78c36.64.09,38.68,2.22,38.68,38.69Z"/><path class="cls-2" d="M714.2,590.14h3.2v-1.87c.08-36.47,2.13-38.6,38.78-38.68H758v-3.2h-1.86c-36.65-.09-38.61-2.22-38.69-38.69v-1.87h-3.2v1.78c0,36.56-2,38.69-38.69,38.78h-1.77v3.2h1.77c36.65.08,38.69,2.21,38.69,38.68Z"/><path class="cls-2" d="M798.42,674.44h3.19v-1.86c.09-36.47,2.13-38.6,38.78-38.69h1.78V630.7H840.3c-36.64-.09-38.6-2.22-38.69-38.7v-1.86h-3.19v1.78c0,36.56-2,38.69-38.69,38.78H758v3.19h1.78c36.65.09,38.69,2.22,38.69,38.69Z"/><path class="cls-2" d="M882.63,590.14h3.2v-1.87c.09-36.47,2.13-38.6,38.78-38.68h1.78v-3.2h-1.87c-36.65-.09-38.6-2.22-38.69-38.69v-1.87h-3.2v1.78c0,36.56-2,38.69-38.68,38.78h-1.78v3.2H844c36.65.08,38.68,2.21,38.68,38.68Z"/><path class="cls-1" d="M966.85,674.44h3.2v-1.86c.09-36.47,2.13-38.6,38.78-38.69h1.77V630.7h-1.86c-36.65-.09-38.6-2.22-38.69-38.7v-1.86h-3.2v1.78c0,36.56-2,38.69-38.69,38.78h-1.77v3.19h1.77c36.65.09,38.69,2.22,38.69,38.69Z"/><path class="cls-2" d="M1051.07,590.14h3.19v-1.87c.09-36.47,2.14-38.6,38.78-38.68h1.78v-3.2H1093c-36.65-.09-38.61-2.22-38.7-38.69v-1.87h-3.19v1.78c0,36.56-2,38.69-38.69,38.78h-1.78v3.2h1.78c36.65.08,38.69,2.21,38.69,38.68Z"/><path class="cls-2" d="M1135.29,674.44h3.19v-1.86c.09-36.47,2.13-38.6,38.78-38.69H1179V630.7h-1.87c-36.65-.09-38.6-2.22-38.69-38.7v-1.86h-3.19v1.78c0,36.56-2,38.69-38.69,38.78h-1.78v3.19h1.78c36.65.09,38.69,2.22,38.69,38.69Z"/><path class="cls-3" d="M1219.5,590.14h3.2v-1.87c.09-36.47,2.13-38.6,38.78-38.68h1.78v-3.2h-1.87c-36.65-.09-38.6-2.22-38.69-38.69v-1.87h-3.2v1.78c0,36.56-2,38.69-38.68,38.78H1179v3.2h1.78c36.64.08,38.68,2.21,38.68,38.68Z"/><path class="cls-2" d="M1303.72,674.44h3.2v-1.86c.08-36.47,2.13-38.6,38.78-38.69h1.77V630.7h-1.86c-36.65-.09-38.61-2.22-38.69-38.7v-1.86h-3.2v1.78c0,36.56-2,38.69-38.69,38.78h-1.77v3.19H1265c36.65.09,38.69,2.22,38.69,38.69Z"/><path class="cls-2" d="M1387.94,590.14h3.19v-1.87c.09-36.47,2.13-38.6,38.78-38.68h1.78v-3.2h-1.87c-36.64-.09-38.6-2.22-38.69-38.69v-1.87h-3.19v1.78c0,36.56-2,38.69-38.69,38.78h-1.78v3.2h1.78c36.65.08,38.69,2.21,38.69,38.68Z"/><path class="cls-2" d="M40.46,758.75h3.2v-1.87c.09-36.47,2.13-38.6,38.78-38.68h1.78V715H82.35c-36.65-.09-38.6-2.22-38.69-38.69v-1.87h-3.2v1.78c0,36.56-2,38.69-38.68,38.78H0v3.2H1.78c36.65.08,38.68,2.21,38.68,38.68Z"/><path class="cls-2" d="M208.9,758.75h3.19v-1.87c.09-36.47,2.14-38.6,38.78-38.68h1.78V715h-1.86c-36.65-.09-38.61-2.22-38.7-38.69v-1.87H208.9v1.78c0,36.56-2,38.69-38.69,38.78h-1.78v3.2h1.78c36.65.08,38.69,2.21,38.69,38.68Z"/><path class="cls-2" d="M377.33,758.75h3.2v-1.87c.09-36.47,2.13-38.6,38.78-38.68h1.78V715h-1.87c-36.65-.09-38.6-2.22-38.69-38.69v-1.87h-3.2v1.78c0,36.56-2,38.69-38.69,38.78h-1.77v3.2h1.77c36.65.08,38.69,2.21,38.69,38.68Z"/><path class="cls-2" d="M545.77,758.75H549v-1.87c.09-36.47,2.13-38.6,38.78-38.68h1.78V715h-1.87c-36.65-.09-38.6-2.22-38.69-38.69v-1.87h-3.19v1.78c0,36.56-2,38.69-38.69,38.78H505.3v3.2h1.78c36.65.08,38.69,2.21,38.69,38.68Z"/><path class="cls-1" d="M714.2,758.75h3.2v-1.87c.08-36.47,2.13-38.6,38.78-38.68H758V715h-1.86c-36.65-.09-38.61-2.22-38.69-38.69v-1.87h-3.2v1.78c0,36.56-2,38.69-38.69,38.78h-1.77v3.2h1.77c36.65.08,38.69,2.21,38.69,38.68Z"/><path class="cls-3" d="M882.63,758.75h3.2v-1.87c.09-36.47,2.13-38.6,38.78-38.68h1.78V715h-1.87c-36.65-.09-38.6-2.22-38.69-38.69v-1.87h-3.2v1.78c0,36.56-2,38.69-38.68,38.78h-1.78v3.2H844c36.65.08,38.68,2.21,38.68,38.68Z"/><path class="cls-2" d="M1051.07,758.75h3.19v-1.87c.09-36.47,2.14-38.6,38.78-38.68h1.78V715H1093c-36.65-.09-38.61-2.22-38.7-38.69v-1.87h-3.19v1.78c0,36.56-2,38.69-38.69,38.78h-1.78v3.2h1.78c36.65.08,38.69,2.21,38.69,38.68Z"/><path class="cls-2" d="M1219.5,758.75h3.2v-1.87c.09-36.47,2.13-38.6,38.78-38.68h1.78V715h-1.87c-36.65-.09-38.6-2.22-38.69-38.69v-1.87h-3.2v1.78c0,36.56-2,38.69-38.68,38.78H1179v3.2h1.78c36.64.08,38.68,2.21,38.68,38.68Z"/><path class="cls-1" d="M1387.94,758.75h3.19v-1.87c.09-36.47,2.13-38.6,38.78-38.68h1.78V715h-1.87c-36.64-.09-38.6-2.22-38.69-38.69v-1.87h-3.19v1.78c0,36.56-2,38.69-38.69,38.78h-1.78v3.2h1.78c36.65.08,38.69,2.21,38.69,38.68Z"/></svg>